<svg width="177" height="40" viewBox="0 0 177 40" fill="none" xmlns="http://www.w3.org/2000/svg">
<g clip-path="url(#clip0_103_8)">
<path d="M10.16 8.86133H23.9626C25.0785 8.84963 26.1551 9.27314 26.9639 10.042C27.7727 10.8109 28.2501 11.8646 28.2949 12.9797C28.3396 14.0947 27.9482 15.1834 27.2036 16.0146C26.459 16.8458 25.4199 17.3542 24.3066 17.432H10.1733L10.16 8.86133ZM30.888 19.0613C32.0084 17.7313 32.7271 16.1099 32.96 14.3865C33.1929 12.6631 32.9304 10.9091 32.2032 9.32937C31.476 7.74967 30.3142 6.40962 28.8535 5.46588C27.3928 4.52213 25.6936 4.01369 23.9546 4H5.33331V22.3013H25.7253C26.8444 22.3292 27.9083 22.7934 28.6899 23.5948C29.4715 24.3961 29.909 25.4712 29.909 26.5907C29.909 27.7101 29.4715 28.7852 28.6899 29.5866C27.9083 30.3879 26.8444 30.8521 25.7253 30.88H5.33331V35.7413H25.7173C27.6606 35.7263 29.5488 35.0937 31.1088 33.9349C32.6688 32.7761 33.8199 31.1511 34.3956 29.295C34.9712 27.4389 34.9416 25.4478 34.3111 23.6096C33.6806 21.7713 32.4818 20.1813 30.888 19.0693" fill="#0368FF"/>
<path d="M29.112 26.8107C29.1072 27.2479 28.9733 27.674 28.7269 28.0352C28.4806 28.3965 28.1328 28.6768 27.7275 28.8408C27.3222 29.0049 26.8774 29.0453 26.4491 28.9571C26.0209 28.8689 25.6283 28.656 25.3207 28.3452C25.0132 28.0343 24.8046 27.6394 24.721 27.2102C24.6374 26.7811 24.6827 26.3367 24.8511 25.9332C25.0195 25.5297 25.3035 25.185 25.6674 24.9425C26.0313 24.7001 26.4587 24.5707 26.896 24.5707C27.1889 24.571 27.4789 24.6294 27.7492 24.7424C28.0194 24.8553 28.2647 25.0207 28.4707 25.229C28.6767 25.4372 28.8394 25.6842 28.9495 25.9557C29.0596 26.2272 29.1148 26.5178 29.112 26.8107V26.8107Z" fill="#0368FF"/>
</g>
<path d="M37.77 20.17C37.77 18.67 38.05 17.26 38.61 15.94C39.19 14.6 39.99 13.42 41.01 12.4C42.03 11.36 43.2 10.55 44.52 9.97C45.86 9.37 47.3 9.07 48.84 9.07C50.36 9.07 51.78 9.37 53.1 9.97C54.44 10.55 55.62 11.36 56.64 12.4C57.68 13.42 58.49 14.6 59.07 15.94C59.65 17.26 59.94 18.67 59.94 20.17C59.94 21.71 59.65 23.15 59.07 24.49C58.49 25.83 57.68 27.01 56.64 28.03C55.62 29.03 54.44 29.82 53.1 30.4C51.78 30.96 50.36 31.24 48.84 31.24C47.3 31.24 45.86 30.96 44.52 30.4C43.2 29.84 42.03 29.06 41.01 28.06C39.99 27.06 39.19 25.89 38.61 24.55C38.05 23.21 37.77 21.75 37.77 20.17ZM40.77 20.2C40.77 21.34 40.98 22.41 41.4 23.41C41.82 24.39 42.4 25.26 43.14 26.02C43.88 26.78 44.74 27.38 45.72 27.82C46.7 28.24 47.76 28.45 48.9 28.45C50.02 28.45 51.07 28.24 52.05 27.82C53.03 27.38 53.88 26.78 54.6 26.02C55.32 25.26 55.89 24.39 56.31 23.41C56.73 22.41 56.94 21.33 56.94 20.17C56.94 19.03 56.73 17.96 56.31 16.96C55.89 15.94 55.31 15.05 54.57 14.29C53.83 13.53 52.97 12.94 51.99 12.52C51.01 12.08 49.96 11.86 48.84 11.86C47.7 11.86 46.64 12.08 45.66 12.52C44.68 12.96 43.82 13.56 43.08 14.32C42.34 15.08 41.77 15.97 41.37 16.99C40.97 17.99 40.77 19.06 40.77 20.2ZM83.6227 31.69L66.8527 14.68L67.6927 14.89L67.7527 31H64.8427V8.65H64.9927L81.5827 25.72L80.8927 25.57L80.8327 9.31H83.7127V31.69H83.6227ZM87.7901 31L97.2701 8.41H97.4501L106.9 31H103.57L96.4901 12.97L98.5601 11.62L90.6401 31H87.7901ZM93.3401 22.78H101.41L102.37 25.3H92.5001L93.3401 22.78ZM110.985 9.31H123.855V12.1H113.895V19.03H122.625V21.79H113.895V31H110.985V9.31ZM128.651 9.31H131.561V31H128.651V9.31ZM137.792 31V9.31H143.702C145.842 9.31 147.662 9.64 149.162 10.3C150.682 10.96 151.902 11.83 152.822 12.91C153.742 13.99 154.412 15.19 154.832 16.51C155.272 17.81 155.492 19.11 155.492 20.41C155.492 22.05 155.202 23.52 154.622 24.82C154.062 26.12 153.282 27.23 152.282 28.15C151.282 29.07 150.132 29.78 148.832 30.28C147.552 30.76 146.192 31 144.752 31H137.792ZM140.702 28.21H144.182C145.382 28.21 146.482 28.03 147.482 27.67C148.502 27.31 149.382 26.79 150.122 26.11C150.882 25.43 151.472 24.6 151.892 23.62C152.312 22.62 152.522 21.49 152.522 20.23C152.522 18.89 152.302 17.72 151.862 16.72C151.422 15.7 150.822 14.85 150.062 14.17C149.302 13.49 148.442 12.98 147.482 12.64C146.522 12.28 145.512 12.1 144.452 12.1H140.702V28.21ZM160.38 9.31H174.48V12.1H163.29V18.7H173.28V21.49H163.29V28.21H174.9V31H160.38V9.31Z" fill="#0368FF"/>
<defs>
<clipPath id="clip0_103_8">
<rect width="40" height="40" fill="white"/>
</clipPath>
</defs>
</svg>
